<?xml version="1.0" encoding="utf-8"?>
<!-- Generator: Adobe Illustrator 22.0.1, SVG Export Plug-In . SVG Version: 6.00 Build 0)  -->
<svg version="1.1"
	 id="svg8" inkscape:version="0.92.2 (5c3e80d, 2017-08-06)" sodipodi:docname="logo.svg" xmlns:cc="http://creativecommons.org/ns#" xmlns:dc="http://purl.org/dc/elements/1.1/" xmlns:inkscape="http://www.inkscape.org/namespaces/inkscape" xmlns:rdf="http://www.w3.org/1999/02/22-rdf-syntax-ns#" xmlns:sodipodi="http://sodipodi.sourceforge.net/DTD/sodipodi-0.dtd" xmlns:svg="http://www.w3.org/2000/svg"
	 xmlns="http://www.w3.org/2000/svg" xmlns:xlink="http://www.w3.org/1999/xlink" width="57" height="65" x="0px" y="0px" viewBox="0 0 57.1 65"
	 style="enable-background:new 0 0 57.1 65;" xml:space="preserve">
<style type="text/css">
	.st0{fill:#F47D20;}
	.st1{fill:#010101;}
	.st2{fill:#FFFFFF;}
</style>
<sodipodi:namedview  bordercolor="#666666" borderopacity="1" gridtolerance="10" guidetolerance="10" id="namedview10" inkscape:current-layer="svg8" inkscape:cx="-40.024038" inkscape:cy="54.321207" inkscape:pageopacity="0" inkscape:pageshadow="2" inkscape:window-height="1043" inkscape:window-maximized="1" inkscape:window-width="1920" inkscape:window-x="0" inkscape:window-y="0" inkscape:zoom="1.6864865" objecttolerance="10" pagecolor="#ffffff" showgrid="false">
	</sodipodi:namedview>
<g>
	<path class="st0" d="M46.9,2.6c2.1,0,4,0.8,5.3,2.2c1.4,1.4,2.2,3.2,2.2,5.3v36.6c0,2.1-0.8,4-2.2,5.3c-1.4,1.4-3.2,2.2-5.3,2.2
		c-12.2,0-24.4,0-36.6,0c-2.1,0-4-0.8-5.3-2.2c-1.4-1.4-2.2-3.2-2.2-5.3V10.1c0-2.1,0.8-4,2.2-5.3c1.4-1.4,3.2-2.2,5.3-2.2
		C22.4,2.6,34.6,2.6,46.9,2.6z"/>
	<path class="st1" d="M50.7,56.3L50.7,56.3c0,0.3,0.1,0.6,0.1,0.9c0.4,2.2,2.6,3.5,4.7,4.8c0.2,0.2,0.8,0.4,1,0.9s0.1,1.2-0.3,1.5
		c-0.2,0.2-0.5,0.3-0.8,0.4c-3.6,0.5-7.9,0.2-11.3-1.5c-2.5-1.2-4.3-3.2-5.1-6.2c-5.5,0-11.1,0-16.6,0c-6.5,0-11.4,0-12.2,0
		c-1.4,0-2.7-0.3-3.9-0.8C5.1,55.7,3.9,55,3,54c-0.9-0.9-1.7-2.1-2.2-3.3S0,48.2,0,46.8V10.2c0-1.4,0.3-2.7,0.8-3.9S2,3.9,3,3
		c1-1,2.1-1.7,3.3-2.2C7.5,0.2,8.8,0,10.2,0C11,0,16,0,22.4,0c8.1,0,16.3,0,24.4,0c1.4,0,2.7,0.2,3.9,0.8C51.9,1.3,53.1,2,54,3
		c0.9,0.9,1.7,2.1,2.2,3.3S57,8.8,57,10.2v36.6c0,1.4-0.2,2.7-0.8,3.9C55.7,51.9,55,53.1,54,54c-0.6,0.6-1.3,1.2-2,1.5
		C51.6,55.8,51.2,56,50.7,56.3L50.7,56.3z M48,56.4c0-0.3,0-0.7,0-1c0-0.6,0.4-1.2,0.9-1.4l0,0c0.6-0.2,1.2-0.5,1.7-0.8
		s1-0.7,1.5-1.2c0.7-0.7,1.2-1.5,1.6-2.5c0.4-0.9,0.5-1.8,0.5-2.9V10.1c0-1-0.2-2-0.5-2.9c-0.4-0.9-0.9-1.8-1.6-2.5
		s-1.5-1.2-2.5-1.6c-0.9-0.4-1.9-0.5-2.9-0.5c-8.1,0-16.3,0-24.4,0c-1.7,0-3.2,0-12.2,0c-1,0-2,0.2-2.9,0.5C6.3,3.5,5.4,4,4.7,4.7
		S3.5,6.2,3.1,7.2C2.7,8.1,2.6,9,2.6,10.1v36.6c0,1,0.2,2,0.5,2.9c0.4,0.9,0.9,1.8,1.6,2.5s1.5,1.2,2.5,1.6c0.9,0.4,1.8,0.5,2.9,0.5
		c8.9,0,10.5,0,12.2,0c5.8,0,11.8,0,17.6,0c0.7-0.1,1.4,0.5,1.5,1.2l0,0c0.4,2.6,1.8,4.3,3.8,5.4c1.7,0.8,3.7,1.3,5.7,1.4
		c-1.4-1.2-2.5-2.5-2.8-4.5C48.1,57.3,48.1,56.9,48,56.4z"/>
	<path class="st2" d="M35.3,30.4V10.2c0-2.1,0.8-4,2.2-5.3c1.4-1.4,3.2-2.2,5.3-2.2h4.1c2.1,0,4,0.8,5.3,2.2
		c1.4,1.4,2.2,3.2,2.2,5.3v16.4v20.2c0,2.1-0.8,4-2.2,5.3c-1.1,1.1-2.5,1.8-4.1,2.2c-0.1,1.8-0.4,5.6,2.8,7.8
		c-5.2,0-9.4-2.1-9.5-7.8c-1.5-0.3-2.8-1.2-3.9-2.2c-1.4-1.4-2.2-3.2-2.2-5.3L35.3,30.4L35.3,30.4z M21.8,39.3v-6.1
		c0-2.1-0.8-4-2.2-5.3c-1.4-1.4-3.2-2.2-5.3-2.2h-2l0,0H12c-0.7,0-1.3-0.3-1.8-0.8s-0.8-1.1-0.8-1.8v-4.5l0,0v-1.5v-1.6l0,0V11
		c0-0.7,0.3-1.3,0.8-1.8s1.1-0.8,1.8-0.8h0.7c0.7,0,1.3,0.3,1.8,0.8s0.8,1.1,0.8,1.8v11h6.6V10.2c0-2.1-0.8-4-2.2-5.3
		c-1.4-1.4-3.2-2.2-5.3-2.2h-4.1c-2.1,0-4,0.8-5.3,2.2c-1.4,1.4-2.2,3.2-2.2,5.3V17v6.8c0,2.1,0.8,4,2.2,5.3
		c1.4,1.4,3.2,2.2,5.3,2.2h2l0,0h0.3c0.7,0,1.3,0.3,1.8,0.8c0.5,0.5,0.8,1.1,0.8,1.8v4.5l0,0v0.9v2.2l0,0V46c0,0.7-0.3,1.3-0.8,1.8
		s-1.1,0.8-1.8,0.8h-0.7c-0.7,0-1.3-0.3-1.8-0.8S9.3,46.7,9.3,46V35.1H2.6v11.8c0,2.1,0.8,4,2.2,5.3c1.4,1.4,3.2,2.2,5.3,2.2h4.1
		c2.1,0,4-0.8,5.3-2.2c1.4-1.4,2.2-3.2,2.2-5.3v-7.6H21.8z M25.2,2.6h6.7v51.7h-6.7V2.6L25.2,2.6z M47.7,30L47.7,30v-3.5v-4.2l0,0
		V10.8c0-0.7-0.3-1.3-0.8-1.8s-1.1-0.8-1.8-0.8h-0.7c-0.7,0-1.3,0.3-1.8,0.8s-0.8,1.1-0.8,1.8V27l0,0v3.5v4.2l0,0v11.5
		c0,0.7,0.3,1.3,0.8,1.8s1.1,0.8,1.8,0.8h0.7c0.7,0,1.3-0.3,1.8-0.8s0.8-1.1,0.8-1.8V30z"/>
</g>
</svg>
